<svg xmlns="http://www.w3.org/2000/svg" width="48" height="48" viewBox="0 0 48 48"><defs><style>.cls-1{fill:#d0d7df;}.cls-2{fill:#f1f2f2;}.cls-3{fill:#fed049;}.cls-4{fill:#a4b0c0;}.cls-5{fill:#474c54;}</style></defs><title>8-File-Report</title><g id="_8-File-Report" data-name="8-File-Report"><path class="cls-1" d="M45,13H37a4,4,0,0,1-4-4V1Z"/><path class="cls-2" d="M45,13V43a4,4,0,0,1-4,4H7c-4,0-4-4-4-4V5A4,4,0,0,1,7,1H33V9a4,4,0,0,0,4,4h8Z"/><rect class="cls-3" x="13" y="23" width="5" height="12"/><rect class="cls-3" x="29" y="30" width="6" height="5"/><rect class="cls-4" x="23" y="24" width="6" height="11"/><rect class="cls-1" x="18" y="16" width="5" height="19"/><path class="cls-5" d="M45.707,12.293l-12-12a1,1,0,0,0-.323-.216A.988.988,0,0,0,33,0H7A5.006,5.006,0,0,0,2,5V43a4.821,4.821,0,0,0,5,5H41a5.006,5.006,0,0,0,5-5V13A1,1,0,0,0,45.707,12.293ZM44,43a3,3,0,0,1-3,3H7a2.852,2.852,0,0,1-3-3V5A3,3,0,0,1,7,2H32V9a5.006,5.006,0,0,0,5,5h2a1,1,0,0,0,0-2H37a3,3,0,0,1-3-3V3.414l10,10Z"/><path class="cls-5" d="M39,38H9a1,1,0,0,0,0,2H39a1,1,0,0,0,0-2Z"/><path class="cls-5" d="M13,36a1,1,0,0,0,1-1V24h3V35a1,1,0,0,0,2,0V23a1,1,0,0,0-1-1H13a1,1,0,0,0-1,1V35A1,1,0,0,0,13,36Z"/><path class="cls-5" d="M18,20a1,1,0,0,0,1-1V17h3V35a1,1,0,0,0,2,0V16a1,1,0,0,0-1-1H18a1,1,0,0,0-1,1v3A1,1,0,0,0,18,20Z"/><path class="cls-5" d="M26,25h2V35a1,1,0,0,0,2,0V24a1,1,0,0,0-1-1H26a1,1,0,0,0,0,2Z"/><path class="cls-5" d="M32,31h2v4a1,1,0,0,0,2,0V30a1,1,0,0,0-1-1H32a1,1,0,0,0,0,2Z"/></g></svg>