<?xml version="1.0" encoding="UTF-8"?>
<!DOCTYPE svg PUBLIC "-//W3C//DTD SVG 1.1//EN" "http://www.w3.org/Graphics/SVG/1.1/DTD/svg11.dtd">
<!-- Creator: CorelDRAW -->
<svg xmlns="http://www.w3.org/2000/svg" xml:space="preserve" width="2048px" height="2048px" style="shape-rendering:geometricPrecision; text-rendering:geometricPrecision; image-rendering:optimizeQuality; fill-rule:evenodd; clip-rule:evenodd"
viewBox="0 0 2048 2048"
 xmlns:xlink="http://www.w3.org/1999/xlink">
 <defs>
  <style type="text/css">
   <![CDATA[
    .fil1 {fill:none}
    .fil4 {fill:#F9A825}
    .fil0 {fill:#FBC02D}
    .fil3 {fill:#FDD835}
    .fil2 {fill:#26A69A;fill-rule:nonzero}
   ]]>
  </style>
 </defs>
 <g id="Layer_x0020_1">
  <metadata id="CorelCorpID_0Corel-Layer"/>
  <path class="fil0" d="M1056 554.118c125.332,0 238.803,50.804 320.941,132.941 82.1375,82.1386 132.941,195.61 132.941,320.941 0,125.332 -50.804,238.803 -132.941,320.94 -82.1375,82.1375 -195.61,132.943 -320.941,132.943 -125.332,0 -238.804,-50.8052 -320.941,-132.943 -82.1375,-82.1375 -132.941,-195.608 -132.941,-320.94 0,-125.332 50.804,-238.803 132.941,-320.941 82.1386,-82.1375 195.61,-132.941 320.941,-132.941z"/>
  <g id="_393195560">
   <rect id="_393194960" class="fil1" width="2048" height="2048"/>
   <rect id="_393195392" class="fil1" x="255.999" y="255.999" width="1536" height="1536"/>
  </g>
  <polygon class="fil2" points="511.999,367.999 1458.75,367.999 1385.37,294.625 1430.62,249.375 1558.62,377.374 1581.25,400.001 1558.62,422.625 1430.62,550.623 1385.37,505.373 1458.75,432 511.999,432 "/>
  <polygon class="fil2" points="1536,1680 589.252,1680 662.626,1753.37 617.376,1798.63 489.376,1670.63 466.751,1648 489.376,1625.38 617.376,1497.38 662.626,1542.63 589.252,1616 1536,1616 "/>
  <path class="fil3" d="M1056 671.999c92.7804,0 176.782,37.6099 237.587,98.4142 60.8044,60.8056 98.4142,144.807 98.4142,237.587 0,92.7804 -37.6099,176.782 -98.4142,237.586 -60.8044,60.8056 -144.807,98.4154 -237.587,98.4154 -92.7804,0 -176.783,-37.6099 -237.587,-98.4154 -60.8044,-60.8044 -98.4142,-144.806 -98.4142,-237.586 0,-92.7804 37.6099,-176.782 98.4142,-237.587 60.8056,-60.8044 144.807,-98.4142 237.587,-98.4142z"/>
  <path class="fil4" d="M1072.08 1138.49c10.7693,-2.47205 19.4858,-8.69883 26.2252,-18.5882 6.73938,-9.98032 10.1091,-21.6095 10.1091,-35.0705 0,-11.9965 -2.85591,-22.2508 -8.49804,-30.9508 -5.63977,-8.69764 -14.9421,-15.3827 -27.8362,-19.9606l0 104.57zm-31.0595 -285.418c-8.49804,3.57048 -15.1642,9.70631 -20.2193,18.2221 -4.98071,8.60788 -7.47166,18.1311 -7.47166,28.4776 0,9.43111 2.27008,18.3142 6.81142,26.3717 4.61693,8.14961 11.5748,14.7425 20.8795,19.7788l0 -92.8501zm0 281.665l0 -112.355c-28.0571,-10.0724 -48.6426,-25.1823 -61.7552,-45.5091 -13.0394,-20.3291 -19.6323,-44.9611 -19.6323,-73.8969 0,-29.3008 7.39843,-53.9327 22.1953,-73.8957 14.8725,-19.9618 34.578,-31.4079 59.1922,-34.5213l0 -26.5547 31.0595 0 0 26.5547c22.7823,3.47953 40.8768,13.0949 54.3567,29.1189 13.4043,16.0252 21.9756,37.4528 25.7114,64.2815l-54.2811 8.8819c-3.29764,-21.1524 -11.8689,-35.4366 -25.787,-42.9449l0 104.845c34.3571,11.6291 57.7985,26.7378 70.1788,45.2363 12.4547,18.4949 18.6803,42.2114 18.6803,71.2394 0,32.3244 -7.8378,59.6115 -23.4425,81.7701 -15.6756,22.2508 -37.5059,35.804 -65.4166,40.839l0 50.1804 -31.0595 0 0 -48.8977c-24.7606,-3.75355 -44.9067,-15.2917 -60.3626,-34.6134 -15.4583,-19.2284 -25.2744,-46.5166 -29.5961,-81.7701l56.0398 -7.50827c2.27126,14.2843 6.5941,26.6469 12.8941,36.9945 6.22678,10.3453 13.2591,17.8547 21.0248,22.5248z"/>
 </g>
</svg>
